<?xml version="1.0" standalone="no"?>
<!DOCTYPE svg PUBLIC "-//W3C//DTD SVG 20010904//EN"
 "http://www.w3.org/TR/2001/REC-SVG-20010904/DTD/svg10.dtd">
<svg version="1.0" xmlns="http://www.w3.org/2000/svg"
 width="410.000000pt" height="410.000000pt" viewBox="0 0 410.000000 410.000000"
 preserveAspectRatio="xMidYMid meet">
<metadata>
Created by potrace 1.14, written by Peter Selinger 2001-2017
</metadata>
<g transform="translate(0.000000,410.000000) scale(0.100000,-0.100000)"
fill="#000000" stroke="none">
<path d="M2430 4085 c-185 -37 -336 -119 -472 -256 -110 -110 -195 -261 -228
-404 -7 -27 -14 -56 -16 -63 -3 -9 -23 3 -59 35 -111 99 -246 153 -400 158
-164 6 -296 -33 -420 -126 -254 -189 -335 -533 -191 -818 44 -86 150 -207 214
-245 65 -38 123 -66 137 -66 33 0 12 -19 -47 -40 -209 -76 -392 -264 -463
-473 -13 -40 -28 -100 -34 -132 -6 -35 -9 -275 -8 -570 l2 -510 535 0 535 0 3
-282 2 -283 28 -1 c15 0 497 0 1072 -1 l1045 0 0 708 c-1 626 -5 800 -20 824
-2 4 -7 22 -10 40 -13 72 -79 223 -140 320 -122 191 -346 364 -565 435 -52 17
-53 19 -30 28 313 129 505 353 576 672 3 17 8 84 10 150 5 189 -40 349 -141
506 -119 184 -313 325 -523 380 -98 26 -300 33 -392 14z m-512 -1464 c30 -35
91 -90 179 -161 12 -10 151 -79 193 -97 23 -9 22 -11 -30 -28 -141 -47 -280
-128 -395 -232 l-57 -52 -47 45 c-63 61 -157 121 -251 159 l-77 31 31 13 c163
69 312 217 364 364 l17 48 18 -23 c11 -13 35 -43 55 -67z"/>
</g>
</svg>
